<?xml version="1.0" standalone="no"?>
<!DOCTYPE svg PUBLIC "-//W3C//DTD SVG 20010904//EN"
 "http://www.w3.org/TR/2001/REC-SVG-20010904/DTD/svg10.dtd">
<svg version="1.0" xmlns="http://www.w3.org/2000/svg"
 width="670.000000pt" height="496.000000pt" viewBox="0 0 670.000000 496.000000"
 preserveAspectRatio="xMidYMid meet">

<g transform="translate(0.000000,496.000000) scale(0.100000,-0.100000)"
fill="#000000" stroke="none">
<path d="M1727 4053 c-4 -3 -7 -19 -7 -35 0 -21 6 -31 23 -37 35 -13 59 5 55
41 -3 34 -31 46 -57 25 -12 -9 -13 -9 -7 1 8 13 4 16 -7 5z"/>
<path d="M1855 4052 c-13 -14 -4 -62 15 -72 33 -17 62 4 58 43 -3 28 -7 32
-35 33 -18 1 -35 -1 -38 -4z"/>
<path d="M1985 4052 c-13 -13 -4 -62 13 -71 28 -15 64 13 60 47 -3 23 -8 27
-35 28 -18 1 -35 -1 -38 -4z"/>
<path d="M2587 3189 c7 -7 15 -10 18 -7 3 3 -2 9 -12 12 -14 6 -15 5 -6 -5z"/>
<path d="M2641 3187 c2 -1 15 -11 29 -22 l25 -20 -19 23 c-11 12 -24 22 -29
22 -6 0 -8 -1 -6 -3z"/>
<path d="M4091 2929 c-37 -14 -82 -50 -75 -60 4 -7 66 28 103 58 11 8 -6 10
-28 2z"/>
<path d="M3890 2743 c-33 -53 -40 -84 -15 -63 8 7 24 27 36 46 l20 34 56 -66
c30 -36 59 -64 63 -62 17 7 112 119 106 125 -4 4 -32 -19 -64 -50 l-57 -57
-55 70 c-30 39 -56 70 -57 70 -2 0 -16 -21 -33 -47z"/>
<path d="M5378 2383 c-52 -56 -60 -100 -33 -190 24 -81 33 -83 121 -27 43 27
78 57 80 66 1 10 -2 16 -6 15 -13 -3 -99 66 -100 79 0 7 -7 24 -14 40 -8 15
-13 31 -10 36 12 19 -14 6 -38 -19z"/>
<path d="M5944 2272 c-23 -21 -54 -58 -69 -82 -67 -106 -179 -185 -277 -197
-79 -9 -31 -28 72 -28 70 0 95 5 140 26 118 55 170 127 178 247 2 39 3 72 1
72 -2 0 -22 -17 -45 -38z"/>
<path d="M581 2204 c0 -11 3 -14 6 -6 3 7 2 16 -1 19 -3 4 -6 -2 -5 -13z"/>
<path d="M591 2175 c-2 -50 66 -263 88 -274 11 -6 110 10 304 49 159 32 295
61 303 64 12 5 15 18 12 56 -1 28 -1 51 2 53 3 1 -8 14 -23 30 l-29 27 7 -32
c4 -22 3 -28 -3 -19 -9 13 -57 11 -132 -4 -8 -2 -58 -10 -110 -19 -52 -9 -153
-28 -223 -43 -87 -17 -132 -22 -139 -15 -5 5 -20 38 -33 73 -13 35 -24 60 -24
54z"/>
<path d="M1474 2106 c-3 -7 -3 -26 0 -42 2 -16 5 -74 7 -129 1 -55 4 -86 6
-68 3 22 9 30 18 27 7 -3 16 0 20 6 6 9 9 9 15 0 4 -6 10 37 13 95 4 59 4 111
1 116 -8 14 -74 11 -80 -5z"/>
<path d="M5420 2075 c19 -19 36 -35 39 -35 3 0 -10 16 -29 35 -19 19 -36 35
-39 35 -3 0 10 -16 29 -35z"/>
<path d="M1333 1473 c9 -2 23 -2 30 0 6 3 -1 5 -18 5 -16 0 -22 -2 -12 -5z"/>
<path d="M1428 1473 c6 -2 18 -2 25 0 6 3 1 5 -13 5 -14 0 -19 -2 -12 -5z"/>
<path d="M5935 1394 c-71 -13 -191 -34 -265 -47 -148 -27 -138 -29 -178 29 -7
11 -10 13 -6 5 11 -23 6 -73 -8 -82 -7 -5 -55 -9 -107 -9 -107 0 -154 -16
-209 -73 l-32 -33 35 -88 c43 -107 61 -135 92 -147 26 -10 91 11 105 34 13 21
9 35 -10 30 -12 -3 -19 1 -19 11 0 9 5 16 10 16 6 0 8 3 5 6 -3 3 -2 21 4 40
7 27 6 41 -5 57 -7 12 -19 36 -25 54 -15 44 -1 47 133 32 110 -12 110 -12 155
-55 50 -48 120 -83 165 -84 17 0 158 29 315 65 210 49 295 72 323 90 20 14 37
30 37 35 0 5 -16 -2 -36 -15 -77 -52 -198 -14 -296 94 l-53 57 -130 -22z"/>
<path d="M1602 1394 c10 -10 20 -16 22 -13 3 3 -5 11 -17 18 -21 13 -21 12 -5
-5z"/>
<path d="M1530 1341 c0 -16 -4 -32 -9 -35 -11 -7 -13 -303 -2 -330 15 -37 19
1 23 187 2 103 5 187 7 187 2 0 16 -11 33 -25 16 -14 35 -25 41 -25 13 0 -20
28 -65 54 l-28 17 0 -30z"/>
<path d="M1946 1341 c5 -5 59 -6 124 -1 l115 7 -124 1 c-74 1 -121 -2 -115 -7z"/>
<path d="M2878 1343 c314 -2 830 -2 1145 0 314 1 57 2 -573 2 -630 0 -887 -1
-572 -2z"/>
<path d="M1233 1165 c0 -116 2 -156 8 -125 4 25 8 81 8 125 0 44 -4 100 -8
125 -6 31 -8 -9 -8 -125z"/>
<path d="M2553 1273 c339 -2 895 -2 1235 0 339 1 61 2 -618 2 -679 0 -957 -1
-617 -2z"/>
<path d="M2522 1170 c0 -14 2 -19 5 -12 2 6 2 18 0 25 -3 6 -5 1 -5 -13z"/>
<path d="M4755 1170 c-33 -10 -51 -19 -39 -19 19 -1 23 -11 33 -78 15 -98 33
-134 96 -200 62 -63 92 -73 141 -44 20 12 37 21 38 19 1 -2 17 -34 35 -71 44
-92 100 -127 146 -94 16 13 15 14 -14 9 -26 -4 -37 2 -64 30 -18 20 -38 53
-45 75 -38 128 19 260 84 196 14 -14 17 -14 12 -3 -3 8 -17 52 -32 97 l-27 82
-76 -64 c-42 -36 -86 -65 -101 -67 -26 -3 -25 -4 31 -62 61 -63 66 -78 41
-114 -23 -34 -89 -30 -141 7 -59 43 -103 115 -103 169 0 39 3 45 29 55 25 9
28 15 27 54 0 23 -3 42 -6 42 -3 -1 -32 -9 -65 -19z"/>
<path d="M4668 1143 c7 -3 16 -2 19 1 4 3 -2 6 -13 5 -11 0 -14 -3 -6 -6z"/>
<path d="M4456 1082 c-32 -22 -49 -27 -89 -25 -28 1 -55 -1 -60 -4 -18 -11 25
-22 88 -22 33 -1 83 -4 112 -7 60 -8 57 -2 73 -144 15 -137 16 -138 44 -133
16 3 30 -3 45 -18 l21 -23 0 35 c-1 42 -55 337 -64 346 -3 3 -6 -10 -6 -30 0
-47 -36 -50 -53 -5 -4 11 -13 15 -26 11 -11 -3 -33 -2 -47 1 -25 7 -26 8 -9
26 23 26 18 24 -29 -8z"/>
<path d="M1136 1053 c-7 -46 -8 -108 -1 -101 7 6 18 138 12 138 -2 0 -7 -17
-11 -37z"/>
<path d="M2231 1085 c-1 -5 -10 -66 -20 -134 -11 -68 -23 -127 -28 -131 -4 -5
-56 -10 -116 -13 -109 -4 -162 -17 -70 -17 36 0 53 -4 57 -15 4 -11 21 -15 66
-15 59 0 60 -1 60 -27 1 -21 3 -24 9 -13 13 22 53 314 48 347 -2 15 -5 24 -6
18z"/>
<path d="M2299 1071 c-20 -23 -33 -71 -19 -71 6 0 8 -10 5 -22 -7 -30 -13 -78
-21 -164 -5 -60 -4 -72 10 -77 9 -4 16 -3 16 1 0 4 9 79 20 167 11 88 20 166
20 173 0 17 -12 14 -31 -7z"/>
<path d="M842 1010 c0 -19 2 -27 5 -17 2 9 2 25 0 35 -3 9 -5 1 -5 -18z"/>
<path d="M3985 950 c-5 -37 -11 -50 -24 -50 -14 0 -16 -10 -13 -77 4 -71 17
-104 33 -85 7 8 21 262 15 262 -2 0 -7 -22 -11 -50z"/>
<path d="M4288 869 c-28 -30 -21 -139 8 -139 11 0 14 19 14 80 0 44 -1 80 -2
79 -2 0 -11 -9 -20 -20z"/>
<path d="M2580 780 c0 -56 14 -67 24 -19 10 50 7 69 -9 69 -11 0 -15 -12 -15
-50z"/>
<path d="M2890 780 c0 -22 5 -40 10 -40 6 0 10 18 10 40 0 22 -4 40 -10 40 -5
0 -10 -18 -10 -40z"/>
<path d="M2178 649 c-3 -29 -3 -60 -1 -70 5 -18 47 -19 1260 -19 808 0 1252 3
1248 10 -10 16 30 19 332 23 269 3 316 7 301 23 -8 8 -314 7 -476 -1 l-139 -7
-6 23 c-4 13 -7 34 -7 47 l0 22 -1254 0 -1253 0 -5 -51z"/>
<path d="M1385 670 l-640 -5 648 -3 c426 -1 647 1 647 8 0 6 -3 9 -7 8 -5 -2
-296 -5 -648 -8z"/>
<path d="M5330 608 c0 -4 16 -8 35 -8 19 0 35 2 35 4 0 2 -16 6 -35 8 -19 2
-35 0 -35 -4z"/>
<path d="M5472 601 c38 -13 458 -22 458 -10 0 5 -78 9 -187 9 -104 1 -213 3
-243 5 -40 3 -48 2 -28 -4z"/>
</g>
</svg>
